<?xml version="1.0" encoding="utf-8"?>
<!-- Generator: Adobe Illustrator 23.0.0, SVG Export Plug-In . SVG Version: 6.00 Build 0)  -->
<svg version="1.1" id="Layer_1" xmlns="http://www.w3.org/2000/svg" xmlns:xlink="http://www.w3.org/1999/xlink" x="0px" y="0px"
	 viewBox="0 0 598 246.3" style="enable-background:new 0 0 598 246.3;" xml:space="preserve">
<style type="text/css">
	.st0{fill:#008DE4;}
</style>
<path class="st0" d="M127.3,0H56.5l-5.9,32.8l63.9,0.1c31.4,0,40.7,11.4,40.5,30.4c-0.1,9.7-4.3,26.1-6.2,31.4
	C144,108.8,134,125,96.7,125l-62.1,0l-5.9,32.8h70.6c24.9,0,35.5-2.9,46.7-8.1c24.9-11.5,39.7-36,45.6-68
	C200.5,33.9,189.5,0,127.3,0"/>
<path class="st0" d="M346.1,157.8l5-28.5h60.4c4.7,0,8.1-2.9,8.8-7.6c0.9-4.8-1.4-7.6-6.2-7.6h-28.9c-22.8,0-33.7-13.3-29.7-36.1
	c4-22.8,19.7-36.1,42.5-36.1h65.7l-5.2,28.5h-57.9c-4.7,0-8.1,2.9-8.8,7.6c-0.9,4.7,1.4,7.6,6.2,7.6H427c22.8,0,33.7,13.3,29.7,36.1
	c-4,22.8-19.5,36.1-42.3,36.1H346.1z"/>
<path class="st0" d="M254.1,157.8c-37.5,0-54.4-20.4-47.7-58c6.4-37.5,30.6-58,68.2-58H341l-20.4,115.9H254.1z M297.3,70.4h-17.1
	c-20.4,0-32.5,9-36.1,29.5c-3.8,20.4,3.8,29.5,24.2,29.5h18.7L297.3,70.4z"/>
<path class="st0" d="M546.2,157.8l11.9-67.5c2.1-13.3-3.3-19-16.6-19h-18.9l-15.2,86.5h-38.5L496.7,0h38.5l-7.4,41.9h28.8
	c33.7,0,45.8,14.7,39.9,48.5l-11.9,67.5H546.2z"/>
<path class="st0" d="M26,62.4C7.5,62.4,4.8,74.5,3.1,81.8C0.8,91.3,0,95.2,0,95.2h72.4c18.5,0,21.2-12.1,22.9-19.4
	c2.3-9.6,3.1-13.4,3.1-13.4H26z"/>
<g>
	<path class="st0" d="M486.3,201.7c-2.2,0-4.3,0.4-6.1,1.1c-1.8,0.7-3.4,1.7-4.6,3v-16.3h-7.5v44.7h7.5V218c0-3.1,0.8-5.5,2.4-7.2
		c1.6-1.7,3.8-2.5,6.6-2.5c2.4,0,4.3,0.7,5.7,2.1c1.3,1.4,2,3.5,2,6.4v17.5h7.5v-18.4c0-4.7-1.2-8.2-3.7-10.5
		C493.6,202.9,490.4,201.7,486.3,201.7 M447,234.6c4.5,0,8-0.9,10.7-2.7c2.6-1.8,3.9-4.2,3.9-7.2c0-2.3-0.6-4.1-1.8-5.3
		c-1.2-1.2-2.6-2.1-4.2-2.6c-1.6-0.5-3.8-1-6.3-1.4c-2.6-0.4-4.5-0.9-5.7-1.4c-1.2-0.5-1.8-1.4-1.8-2.6c0-1.1,0.6-2,1.7-2.6
		c1.1-0.7,2.8-1,5-1c3.4,0,6.5,0.8,9.2,2.4l2.9-5.7c-1.4-0.8-3.2-1.5-5.4-2c-2.2-0.5-4.4-0.8-6.6-0.8c-4.3,0-7.8,0.9-10.3,2.7
		c-2.5,1.8-3.8,4.3-3.8,7.3c0,2.3,0.6,4.1,1.8,5.4c1.2,1.3,2.7,2.2,4.3,2.7c1.7,0.5,3.8,1,6.5,1.4c2.5,0.4,4.4,0.8,5.5,1.3
		c1.1,0.4,1.7,1.2,1.7,2.3c0,2.4-2.2,3.6-6.7,3.6c-2,0-4-0.3-6-0.9c-2-0.6-3.8-1.4-5.2-2.3l-2.9,5.7c1.5,1,3.5,1.9,6,2.6
		C441.8,234.3,444.4,234.6,447,234.6 M411.8,229.2c-1.9,0-3.4-0.4-4.5-1.2c-1.1-0.8-1.6-1.9-1.6-3.3c0-2.8,2.2-4.3,6.5-4.3h7.8v3.7
		c-0.6,1.6-1.6,2.8-3.1,3.7C415.3,228.7,413.7,229.2,411.8,229.2 M412.8,201.7c-2.6,0-5.2,0.3-7.5,1c-2.4,0.7-4.4,1.7-6.1,2.9
		l2.9,5.5c1.2-1,2.7-1.8,4.4-2.3c1.7-0.6,3.5-0.8,5.3-0.8c2.6,0,4.6,0.6,6,1.8c1.3,1.2,2,2.9,2,5.2v0.5h-8.3c-4.6,0-8,0.9-10.1,2.6
		c-2.1,1.7-3.2,4.1-3.2,7c0,1.8,0.5,3.5,1.5,5c1,1.5,2.4,2.6,4.2,3.4c1.8,0.8,3.9,1.2,6.3,1.2c2.4,0,4.5-0.4,6.2-1.1
		c1.7-0.7,3-1.8,3.9-3.2v3.9h7.1v-18.8c0-4.6-1.3-8-3.8-10.3C421.2,202.9,417.5,201.7,412.8,201.7 M377.3,234.8
		c3.5,0,6.6-0.6,9.5-1.8c2.9-1.2,5.3-2.9,7.3-5.2L389,223c-3.1,3.3-6.8,5-11.3,5c-2.9,0-5.5-0.6-7.8-1.9c-2.3-1.3-4.1-3-5.4-5.3
		c-1.3-2.2-1.9-4.8-1.9-7.6c0-2.8,0.6-5.4,1.9-7.6c1.3-2.2,3.1-4,5.4-5.3c2.3-1.3,4.9-1.9,7.8-1.9c4.5,0,8.2,1.6,11.3,4.9l5.1-4.8
		c-2-2.3-4.4-4-7.2-5.2c-2.9-1.2-6-1.8-9.5-1.8c-4.3,0-8.1,0.9-11.5,2.8c-3.4,1.9-6.1,4.4-8.1,7.7c-2,3.3-2.9,7-2.9,11.1
		c0,4.1,1,7.8,2.9,11.1c1.9,3.3,4.6,5.9,8.1,7.7C369.2,233.9,373,234.8,377.3,234.8 M323.1,234.2h7.5v-44.7h-7.5V234.2z
		 M297.8,229.2c-1.9,0-3.4-0.4-4.5-1.2c-1.1-0.8-1.6-1.9-1.6-3.3c0-2.8,2.2-4.3,6.5-4.3h7.8v3.7c-0.6,1.6-1.6,2.8-3.1,3.7
		C301.3,228.7,299.7,229.2,297.8,229.2 M298.8,201.7c-2.6,0-5.2,0.3-7.5,1c-2.4,0.7-4.4,1.7-6.1,2.9l2.9,5.5c1.2-1,2.7-1.8,4.4-2.3
		c1.7-0.6,3.5-0.8,5.3-0.8c2.6,0,4.6,0.6,6,1.8c1.3,1.2,2,2.9,2,5.2v0.5h-8.3c-4.6,0-8,0.9-10.1,2.6c-2.1,1.7-3.2,4.1-3.2,7
		c0,1.8,0.5,3.5,1.5,5c1,1.5,2.4,2.6,4.2,3.4c1.8,0.8,3.9,1.2,6.3,1.2c2.4,0,4.5-0.4,6.2-1.1c1.7-0.7,3-1.8,3.9-3.2v3.9h7.1v-18.8
		c0-4.6-1.3-8-3.8-10.3C307.2,202.9,303.5,201.7,298.8,201.7 M278.2,227.1c-1.1,0.9-2.5,1.3-4.2,1.3c-1.4,0-2.5-0.4-3.3-1.2
		c-0.8-0.8-1.1-2-1.1-3.6v-15.3h8.6v-6h-8.6V195H262v7.3h-5.3v6h5.3v15.5c0,3.5,1,6.2,2.9,8.1c1.9,1.8,4.7,2.8,8.2,2.8
		c1.4,0,2.7-0.2,4-0.5c1.3-0.4,2.3-0.9,3.2-1.6L278.2,227.1z M247.4,196.8c1.4,0,2.6-0.5,3.5-1.4s1.4-2,1.4-3.3
		c0-1.2-0.5-2.3-1.4-3.1c-0.9-0.8-2.1-1.2-3.4-1.2c-1.4,0-2.5,0.4-3.4,1.3c-0.9,0.9-1.4,1.9-1.4,3.2c0,1.3,0.5,2.4,1.4,3.2
		C244.9,196.4,246,196.8,247.4,196.8 M243.6,234.2h7.5v-32.1h-7.5V234.2z M216.6,226.4c-2.9,0-5.2-0.9-7.1-2.6
		c-1.8-1.7-2.7-3.9-2.7-6.7c0-2.7,0.9-4.9,2.7-6.6c1.8-1.7,4.2-2.5,7.1-2.5c2.8,0,5.2,0.8,7,2.5c1.8,1.7,2.7,3.9,2.7,6.6
		c0,2.7-0.9,4.9-2.7,6.7C221.8,225.5,219.4,226.4,216.6,226.4 M226.6,202.1v4.3c-1.3-1.6-2.9-2.7-4.8-3.5c-1.9-0.8-4-1.1-6.4-1.1
		c-3,0-5.8,0.6-8.3,1.9c-2.5,1.3-4.4,3.1-5.8,5.4c-1.4,2.3-2.1,5-2.1,8.1c0,3.1,0.7,5.8,2.1,8.1c1.4,2.4,3.4,4.2,5.8,5.5
		c2.5,1.3,5.2,2,8.3,2c2.2,0,4.2-0.4,6.1-1.1c1.8-0.7,3.4-1.8,4.7-3.2v1.7c0,3.3-0.8,5.7-2.5,7.3c-1.6,1.6-4.2,2.4-7.8,2.4
		c-2.2,0-4.4-0.4-6.5-1.1c-2.1-0.7-3.9-1.6-5.3-2.8l-3.4,5.7c1.8,1.5,4.1,2.6,6.9,3.4c2.8,0.8,5.7,1.2,8.8,1.2
		c11.6,0,17.3-5.7,17.3-17v-27.3H226.6z M188.2,196.8c1.4,0,2.6-0.5,3.5-1.4c0.9-0.9,1.4-2,1.4-3.3c0-1.2-0.5-2.3-1.4-3.1
		c-0.9-0.8-2.1-1.2-3.4-1.2c-1.4,0-2.5,0.4-3.4,1.3c-0.9,0.9-1.4,1.9-1.4,3.2c0,1.3,0.5,2.4,1.4,3.2
		C185.7,196.4,186.9,196.8,188.2,196.8 M184.5,234.2h7.5v-32.1h-7.5V234.2z M143.3,227.6v-28.9h10.2c3.1,0,5.8,0.6,8.2,1.8
		c2.3,1.2,4.2,2.9,5.4,5.1c1.3,2.2,1.9,4.7,1.9,7.6c0,2.9-0.6,5.4-1.9,7.6c-1.3,2.2-3.1,3.9-5.4,5.1c-2.3,1.2-5.1,1.8-8.2,1.8H143.3
		z M135.5,234.2h18.4c4.5,0,8.5-0.9,12-2.6s6.2-4.2,8.1-7.4c1.9-3.2,2.9-6.9,2.9-11c0-4.2-1-7.9-2.9-11c-1.9-3.2-4.6-5.7-8.1-7.4
		c-3.5-1.7-7.5-2.6-12-2.6h-18.4V234.2z"/>
</g>
</svg>
