<?xml version="1.0" encoding="utf-8"?>
<!-- Generator: Adobe Illustrator 23.0.0, SVG Export Plug-In . SVG Version: 6.00 Build 0)  -->
<svg version="1.1" id="Layer_1" xmlns="http://www.w3.org/2000/svg" xmlns:xlink="http://www.w3.org/1999/xlink" x="0px" y="0px"
	 viewBox="0 0 623.6 566.9" style="enable-background:new 0 0 623.6 566.9;" xml:space="preserve">
<style type="text/css">
	.st0{fill:#008DE4;}
	.st1{fill:#FFFFFF;}
</style>
<rect class="st0" width="623.6" height="566.9"/>
<g>
	<g>
		<path class="st1" d="M391.4,75.1H204.5L189,161.7l168.7,0.2c83.1,0,107.6,30.2,106.9,80.2c-0.4,25.6-11.5,69-16.3,83.1
			c-12.8,37.5-39.1,80.2-137.7,80.1l-164-0.1l-15.5,86.7h186.5c65.8,0,93.7-7.7,123.4-21.3c65.7-30.3,104.8-95.2,120.4-179.8
			C584.8,164.7,555.7,75.1,391.4,75.1"/>
		<path class="st1" d="M123.8,240c-49,0-56,31.9-60.6,51.2c-6.1,25.2-8.1,35.5-8.1,35.5h191.4c49,0,56-31.9,60.6-51.2
			c6.1-25.2,8.1-35.5,8.1-35.5H123.8z"/>
	</g>
</g>
</svg>
